<?xml version="1.0" encoding="iso-8859-1"?>
<!-- Generator: Adobe Illustrator 19.0.0, SVG Export Plug-In . SVG Version: 6.00 Build 0)  -->
<svg version="1.1" id="Layer_1" xmlns="http://www.w3.org/2000/svg" xmlns:xlink="http://www.w3.org/1999/xlink" x="0px" y="0px"
	 viewBox="0 0 512 512" style="enable-background:new 0 0 512 512;" xml:space="preserve">
<circle style="fill:#FFEDB5;" cx="256" cy="256" r="256"/>
<g>
	<path style="fill:#FEE187;" d="M411.453,459.39L228.338,275.38l-3.156,5.392l-22.187-21.625l0.086,42.346l-25.274-26.165
		l-2.703,98.9l-18.73-19.609l-1.15,88.736l27.798,25.547l29.291,39.369C226.511,510.712,241.105,512,256,512
		C314.471,512,368.352,492.382,411.453,459.39z"/>
	<path style="fill:#FEE187;" d="M231.422,261.108l190.136,190.136C476.881,404.287,512,334.25,512,256
		c0-41.35-9.816-80.401-27.226-114.974l-113.8-113.8l0,0l-87.261,120.742v74.314l-5.351,3.972l-29.924-29.922L231.422,261.108z"/>
</g>
<path style="fill:#EAA22F;" d="M304.085,4.529v91.85l-5.632,5.632c-10.3,10.302-16.089,24.273-16.089,38.841v96.711
	c0,5.997,4.863,10.861,10.861,10.861c5.997,0,10.861-4.861,10.861-10.861v-29.618h2.815v73.061c0,5.973,4.887,10.861,10.861,10.861
	s10.861-4.887,10.861-10.861v-73.061h3.518v89.186c0,5.973,4.887,10.861,10.861,10.861s10.861-4.886,10.861-10.861v-89.186h3.518
	v73.061c0,5.973,4.887,10.861,10.861,10.861s10.861-4.887,10.861-10.861v-62.414c-4.834-2.619-8.126-7.737-8.126-13.61v-21.719
	c0-4.236-3.444-7.68-7.678-7.68h-5.923c-16.453,0-29.839-13.384-29.839-29.837v-18.211h9.214v18.211
	c0,11.373,9.252,20.623,20.625,20.623h5.923c9.316,0,16.893,7.578,16.893,16.894v21.719c0,3.448,2.805,6.253,6.253,6.253
	s6.253-2.805,6.253-6.253v-64.129c0-13.441-5.236-26.079-14.739-35.585l-6.982-6.98V27.226
	C350.146,16.737,327.69,9.016,304.085,4.529z"/>
<g>
	<path style="fill:#E09112;" d="M343,307.99c5.973,0,10.861-4.886,10.861-10.861v-89.186h3.518v73.061
		c0,5.973,4.887,10.861,10.861,10.861s10.861-4.887,10.861-10.861v-62.412c-4.834-2.619-8.126-7.737-8.126-13.61v-21.719
		c0-4.236-3.444-7.68-7.678-7.68h-5.923c-5.304,0-10.28-1.407-14.6-3.843v136.24C342.847,307.979,342.923,307.99,343,307.99z"/>
	<path style="fill:#E09112;" d="M377.956,105.269l-6.982-6.98V27.226c-9.099-4.582-18.523-8.601-28.203-12.086v145.155
		c3.736,3.749,8.902,6.073,14.6,6.073h5.923c9.316,0,16.893,7.578,16.893,16.894v21.719c0,3.448,2.805,6.253,6.253,6.253
		s6.253-2.805,6.253-6.253v-64.129C392.694,127.41,387.46,114.772,377.956,105.269z"/>
</g>
<path style="fill:#D35933;" d="M256,326.428c0-5.997-4.863-10.861-10.861-10.861c-5.997,0-10.861,4.861-10.861,10.861v29.618h-2.815
	v-73.061c0-5.973-4.887-10.861-10.861-10.861s-10.861,4.887-10.861,10.861v73.061h-3.518v-89.186
	c0-5.973-4.887-10.861-10.861-10.861c-5.973,0-10.861,4.887-10.861,10.861v89.186h-3.518v-73.061
	c0-5.973-4.887-10.861-10.861-10.861c-5.973,0-10.861,4.887-10.861,10.861v62.412c4.836,2.619,8.126,7.737,8.126,13.61v21.721
	c0,4.236,3.444,7.68,7.678,7.68h5.923c16.453,0,29.839,13.384,29.839,29.837v18.211h-9.214v-18.211
	c0-11.373-9.252-20.623-20.625-20.623h-5.923c-9.316,0-16.894-7.578-16.894-16.894v-21.721c0-3.448-2.805-6.253-6.253-6.253
	s-6.253,2.805-6.253,6.253v64.129c0,13.441,5.236,26.079,14.739,35.585l6.982,6.98v30.539c21.125,7.794,43.563,12.871,66.889,14.832
	v-43.461l5.632-5.632C250.211,451.679,256,437.708,256,423.14L256,326.428L256,326.428z"/>
<path style="fill:#B54324;" d="M245.139,315.568c-5.997,0-10.861,4.861-10.861,10.861v29.618h-2.815v-73.061
	c0-5.973-4.887-10.861-10.861-10.861s-10.861,4.887-10.861,10.861v73.061h-3.518v-89.186c0-5.973-4.887-10.861-10.861-10.861
	c-0.286,0-0.569,0.021-0.85,0.043v135.639c9.669,4.942,16.317,14.981,16.317,26.564v18.211h-9.214v-18.211
	c0-6.197-2.762-11.752-7.102-15.536v101.812c12.902,3.179,26.178,5.408,39.765,6.551v-43.461l5.632-5.632
	c10.3-10.302,16.089-24.273,16.089-38.841v-96.711C256,320.429,251.137,315.568,245.139,315.568z"/>
<path style="fill:#FF314F;" d="M253.8,282.822c1.465,2.162,4.656,2.162,6.123,0c11.704-17.267,52.965-38.71,52.965-66.474
	c0-19.147-12.541-28.013-28.013-28.013c-15.472,0-28.013,12.541-28.013,28.013c0-15.472-12.541-28.013-28.013-28.013
	s-28.013,8.866-28.013,28.013C200.835,244.114,242.097,265.556,253.8,282.822z"/>
<path style="fill:#A30F44;" d="M284.875,188.335c-15.472,0-28.013,12.541-28.013,28.013c0-0.069-0.01-0.134-0.01-0.203v68.298
	c1.167,0.003,2.336-0.536,3.072-1.62c11.704-17.267,52.965-38.71,52.965-66.474C312.889,197.201,300.347,188.335,284.875,188.335z"
	/>
<g>
</g>
<g>
</g>
<g>
</g>
<g>
</g>
<g>
</g>
<g>
</g>
<g>
</g>
<g>
</g>
<g>
</g>
<g>
</g>
<g>
</g>
<g>
</g>
<g>
</g>
<g>
</g>
<g>
</g>
</svg>
