<?xml version="1.0" encoding="iso-8859-1"?>
<!-- Generator: Adobe Illustrator 19.0.0, SVG Export Plug-In . SVG Version: 6.00 Build 0)  -->
<svg version="1.1" id="Layer_1" xmlns="http://www.w3.org/2000/svg" xmlns:xlink="http://www.w3.org/1999/xlink" x="0px" y="0px"
	 viewBox="0 0 509.287 509.287" style="enable-background:new 0 0 509.287 509.287;" xml:space="preserve">
<circle style="fill:#6EB1E1;" cx="254.644" cy="254.644" r="254.644"/>
<path style="fill:#FCFCFD;" d="M125.118,76.291v324.493h209.886c0,22.718,18.31,41.028,41.028,41.028s41.028-18.31,41.028-41.028
	V76.291H125.118z"/>
<g>
	<path style="fill:#F1F3F7;" d="M335.004,400.784c0-5.086,1.017-9.833,2.713-14.58H84.09v14.241
		c0,22.718,18.649,41.367,41.367,41.367h250.575C353.314,441.812,335.004,423.502,335.004,400.784z"/>
	<rect x="179.37" y="130.543" style="fill:#F1F3F7;" width="183.777" height="14.919"/>
	<rect x="179.37" y="175.979" style="fill:#F1F3F7;" width="183.777" height="14.919"/>
	<rect x="179.37" y="221.415" style="fill:#F1F3F7;" width="183.777" height="14.919"/>
</g>
<polygon style="fill:#FF553E;" points="397.393,331.274 397.393,314.321 359.078,314.321 359.078,276.005 342.125,276.005 
	342.125,314.321 303.809,314.321 303.809,331.274 342.125,331.274 342.125,369.25 359.078,369.25 359.078,331.274 "/>
<g>
</g>
<g>
</g>
<g>
</g>
<g>
</g>
<g>
</g>
<g>
</g>
<g>
</g>
<g>
</g>
<g>
</g>
<g>
</g>
<g>
</g>
<g>
</g>
<g>
</g>
<g>
</g>
<g>
</g>
</svg>
