<?xml version="1.0" encoding="iso-8859-1"?>
<!-- Generator: Adobe Illustrator 19.0.0, SVG Export Plug-In . SVG Version: 6.00 Build 0)  -->
<svg version="1.1" id="Capa_1" xmlns="http://www.w3.org/2000/svg" xmlns:xlink="http://www.w3.org/1999/xlink" x="0px" y="0px"
	 viewBox="0 0 509.287 509.287" style="enable-background:new 0 0 509.287 509.287;" xml:space="preserve">
<circle style="fill:#4F5565;" cx="254.644" cy="254.644" r="254.644"/>
<path style="fill:#71D456;" d="M253.287,346.872c0-96.975-29.838-189.881-44.419-284.821c66.458-18.31,135.29-18.31,201.748,0
	c-14.919,94.94-44.419,187.846-44.419,284.821C328.562,346.872,290.924,346.872,253.287,346.872z"/>
<path style="fill:#FCFCFD;" d="M262.442,305.844c-4.069-69.171-17.293-137.324-28.821-207.173
	c17.293-2.713,30.177-15.597,28.821-30.177c31.873-3.73,63.068-3.73,94.94,0c-1.356,14.58,11.189,27.465,28.821,30.177
	c-11.528,69.849-24.752,138.003-28.821,207.173c-10.85,0-19.666,10.85-20.005,24.752c-18.31,0-36.62,0-54.93,0
	C282.109,317.033,272.954,305.844,262.442,305.844z"/>
<g>
	<path style="fill:#71D456;" d="M309.573,251.592c-22.718,0-44.079-22.04-48.148-49.505c-4.069-27.465,17.971-52.556,48.148-52.895
		c30.177,0,52.217,25.43,48.148,52.895S332.291,251.592,309.573,251.592z"/>
	<path style="fill:#71D456;" d="M309.573,116.641c-7.46,0-13.902-5.425-13.902-12.207c-0.339-6.781,6.103-12.546,13.902-12.546
		c8.138,0,14.241,5.764,13.902,12.546C323.475,111.216,317.033,116.641,309.573,116.641z"/>
	<path style="fill:#71D456;" d="M309.573,306.522c-5.086,0-9.155-5.086-9.155-11.868c0-6.442,4.069-11.868,9.155-11.868
		s9.155,5.425,9.155,11.868C318.728,301.097,314.66,306.522,309.573,306.522z"/>
</g>
<path style="fill:#FCFCFD;" d="M296.35,221.754c10.172,0,18.31-9.494,18.649-21.023c0-5.086,4.069-8.816,8.477-8.816
	c4.747,0,8.477,4.069,8.138,9.155c0,2.374-1.356,4.747-3.052,6.442c-2.374,2.374-2.713,6.103-0.678,8.477
	c2.034,2.373,5.425,2.713,7.46,0.339c2.713-2.374,4.747-5.425,5.764-9.155c1.356,0,2.713,0,4.069,0c3.052,0,5.764-2.374,6.103-5.764
	c0.339-3.391-2.034-6.103-5.086-6.103c-1.356,0-2.713,0-4.069,0c-1.695-8.477-9.155-15.258-18.649-15.597
	c-11.528-0.339-20.344,9.494-20.005,21.023c0,5.086-3.391,8.816-8.138,9.155c-4.408,0-8.477-3.73-8.816-8.816
	c0-2.374,0.678-4.747,2.373-6.442c2.034-2.374,2.034-6.103-0.339-8.477c-2.374-2.374-6.103-2.374-8.138,0
	c-1.695,2.373-3.052,5.764-4.069,9.155c-1.356,0-2.713,0-4.069,0c-3.052,0-5.425,3.052-5.086,6.103
	c0.339,3.391,3.052,5.764,6.103,5.764c1.356,0,2.713,0,3.73,0C280.752,215.65,288.212,221.754,296.35,221.754z"/>
<path style="fill:#F7CFA2;" d="M412.313,332.291L412.313,332.291c0-14.241-11.529-25.77-25.77-25.77h-4.069
	c14.58,0,26.109-11.868,25.77-26.448c-0.339-13.902-12.546-24.752-26.787-24.752H245.489l-4.747-29.16l-68.154,72.901h-47.809
	V435.03h17.971c11.189,0,22.379,3.73,31.534,10.172l0,0c13.902,10.172,30.517,15.597,47.47,15.597h155.634
	c14.241,0,26.448-10.85,26.787-24.752c0.339-14.58-11.189-26.448-25.77-26.448h3.052c14.241,0,26.448-10.85,26.787-24.752
	c0.339-14.58-11.189-26.448-25.77-26.448h4.069C400.784,357.722,412.313,346.193,412.313,332.291z"/>
<path style="fill:#6EB1E1;" d="M105.113,460.8h26.448V294.654H3.052C13.902,362.808,51.878,421.807,105.113,460.8z"/>
<g>
</g>
<g>
</g>
<g>
</g>
<g>
</g>
<g>
</g>
<g>
</g>
<g>
</g>
<g>
</g>
<g>
</g>
<g>
</g>
<g>
</g>
<g>
</g>
<g>
</g>
<g>
</g>
<g>
</g>
</svg>
